# Blender v2.81 (sub 16) OBJ File: ''
# www.blender.org
mtllib octo.mtl
o Cylinder_Cylinder.001
v 0.000000 -0.250000 -1.000000
v 0.000000 0.250000 -1.000000
v 0.587785 -0.250000 -0.809017
v 0.587785 0.250000 -0.809017
v 0.951057 -0.250000 -0.309017
v 0.951057 0.250000 -0.309017
v 0.951056 -0.250000 0.309017
v 0.951056 0.250000 0.309017
v 0.587785 -0.250000 0.809017
v 0.587785 0.250000 0.809017
v -0.000000 -0.250000 1.000000
v -0.000000 0.250000 1.000000
v -0.587785 -0.250000 0.809017
v -0.587785 0.250000 0.809017
v -0.951056 -0.250000 0.309017
v -0.951056 0.250000 0.309017
v -0.951056 -0.250000 -0.309017
v -0.951056 0.250000 -0.309017
v -0.587785 -0.250000 -0.809017
v -0.587785 0.250000 -0.809017
v 0.728559 0.771236 -1.002776
v -0.000000 0.771236 -1.239499
v 1.178834 0.771236 -0.383026
v 1.178834 0.771236 0.383026
v 0.728559 0.771236 1.002776
v -0.000000 0.771236 1.239499
v -0.728559 0.771236 1.002776
v -1.178834 0.771236 0.383026
v -1.178834 0.771236 -0.383027
v -0.728559 0.771236 -1.002776
v 0.728560 2.258692 -1.002776
v 0.000000 2.258692 -1.239499
v 1.178834 2.258692 -0.383026
v 1.178834 2.258692 0.383026
v 0.728559 2.258692 1.002776
v -0.000000 2.258692 1.239499
v -0.728559 2.258692 1.002776
v -1.178834 2.258692 0.383026
v -1.178834 2.258692 -0.383027
v -0.728559 2.258692 -1.002776
v 0.335552 2.773479 -0.461847
v 0.000000 2.773479 -0.570874
v 0.542934 2.773479 -0.176410
v 0.542934 2.773479 0.176410
v 0.335552 2.773479 0.461847
v 0.000000 2.773479 0.570874
v -0.335551 2.773479 0.461847
v -0.542934 2.773479 0.176410
v -0.542934 2.773479 -0.176410
v -0.335551 2.773479 -0.461847
vt 1.000000 0.500000
vt 1.000000 1.000000
vt 0.900000 1.000000
vt 0.900000 0.500000
vt 0.800000 1.000000
vt 0.800000 0.500000
vt 0.700000 1.000000
vt 0.700000 0.500000
vt 0.600000 1.000000
vt 0.600000 0.500000
vt 0.500000 1.000000
vt 0.500000 0.500000
vt 0.400000 1.000000
vt 0.400000 0.500000
vt 0.300000 1.000000
vt 0.300000 0.500000
vt 0.200000 1.000000
vt 0.200000 0.500000
vt -0.000000 1.000000
vt 0.100000 1.000000
vt 0.100000 1.000000
vt -0.000000 1.000000
vt 0.100000 0.500000
vt -0.000000 0.500000
vt 0.750000 0.490000
vt 0.891068 0.444164
vt 0.978254 0.324164
vt 0.978254 0.175836
vt 0.891068 0.055836
vt 0.750000 0.010000
vt 0.608932 0.055836
vt 0.521746 0.175836
vt 0.521746 0.324164
vt 0.608932 0.444164
vt 0.300000 1.000000
vt 0.400000 1.000000
vt 0.400000 1.000000
vt 0.300000 1.000000
vt 0.200000 1.000000
vt 0.500000 1.000000
vt 0.600000 1.000000
vt 0.700000 1.000000
vt 1.000000 1.000000
vt 0.900000 1.000000
vt 0.800000 1.000000
vt 0.600000 1.000000
vt 0.700000 1.000000
vt 0.700000 1.000000
vt 0.600000 1.000000
vt 1.000000 1.000000
vt 0.900000 1.000000
vt 0.200000 1.000000
vt 0.500000 1.000000
vt 0.800000 1.000000
vt 0.100000 1.000000
vt -0.000000 1.000000
vt 0.391068 0.444164
vt 0.250000 0.490000
vt 0.108932 0.444164
vt 0.021746 0.324164
vt 0.021746 0.175836
vt 0.108932 0.055836
vt 0.250000 0.010000
vt 0.391068 0.055836
vt 0.478254 0.175836
vt 0.478254 0.324164
vt 1.000000 1.000000
vt 0.900000 1.000000
vt 0.300000 1.000000
vt 0.200000 1.000000
vt 0.500000 1.000000
vt 0.800000 1.000000
vt 0.100000 1.000000
vt 0.400000 1.000000
vt -0.000000 1.000000
vn 0.3090 0.0000 -0.9511
vn 0.8090 0.0000 -0.5878
vn 1.0000 0.0000 0.0000
vn 0.8090 0.0000 0.5878
vn 0.3090 0.0000 0.9511
vn -0.3090 0.0000 0.9511
vn -0.8090 0.0000 0.5878
vn -1.0000 0.0000 0.0000
vn -0.2832 -0.4004 -0.8715
vn -0.8090 0.0000 -0.5878
vn -0.3090 0.0000 -0.9511
vn 0.0000 -1.0000 0.0000
vn -0.7413 -0.4004 -0.5386
vn -0.9163 -0.4004 0.0000
vn -0.7413 -0.4004 0.5386
vn -0.2832 -0.4004 0.8715
vn 0.2832 -0.4004 0.8715
vn 0.7413 -0.4004 0.5386
vn 0.2832 -0.4004 -0.8715
vn 0.9163 -0.4004 0.0000
vn 0.7413 -0.4004 -0.5386
vn 0.5090 0.7772 0.3698
vn 0.0000 1.0000 0.0000
vn 0.1944 0.7772 -0.5984
vn -0.6292 0.7772 0.0000
vn 0.1944 0.7772 0.5984
vn 0.5090 0.7772 -0.3698
vn -0.5090 0.7772 -0.3698
vn -0.1944 0.7772 0.5984
vn 0.6292 0.7772 0.0000
vn -0.1944 0.7772 -0.5984
vn -0.5090 0.7772 0.3698
usemtl None
s off
f 1/1/1 2/2/1 4/3/1 3/4/1
f 3/4/2 4/3/2 6/5/2 5/6/2
f 5/6/3 6/5/3 8/7/3 7/8/3
f 7/8/4 8/7/4 10/9/4 9/10/4
f 9/10/5 10/9/5 12/11/5 11/12/5
f 11/12/6 12/11/6 14/13/6 13/14/6
f 13/14/7 14/13/7 16/15/7 15/16/7
f 15/16/8 16/15/8 18/17/8 17/18/8
f 2/19/9 20/20/9 30/21/9 22/22/9
f 17/18/10 18/17/10 20/20/10 19/23/10
f 19/23/11 20/20/11 2/19/11 1/24/11
f 1/25/12 3/26/12 5/27/12 7/28/12 9/29/12 11/30/12 13/31/12 15/32/12 17/33/12 19/34/12
f 28/35/7 27/36/7 37/37/7 38/38/7
f 20/20/13 18/17/13 29/39/13 30/21/13
f 18/17/14 16/15/14 28/35/14 29/39/14
f 16/15/15 14/13/15 27/36/15 28/35/15
f 14/13/16 12/11/16 26/40/16 27/36/16
f 12/11/17 10/9/17 25/41/17 26/40/17
f 10/9/18 8/7/18 24/42/18 25/41/18
f 4/3/19 2/2/19 22/43/19 21/44/19
f 8/7/20 6/5/20 23/45/20 24/42/20
f 6/5/21 4/3/21 21/44/21 23/45/21
f 35/46/22 34/47/22 44/48/22 45/49/22
f 25/41/4 24/42/4 34/47/4 35/46/4
f 21/44/1 22/43/1 32/50/1 31/51/1
f 29/39/8 28/35/8 38/38/8 39/52/8
f 26/40/5 25/41/5 35/46/5 36/53/5
f 23/45/2 21/44/2 31/51/2 33/54/2
f 30/21/10 29/39/10 39/52/10 40/55/10
f 27/36/6 26/40/6 36/53/6 37/37/6
f 24/42/3 23/45/3 33/54/3 34/47/3
f 22/22/11 30/21/11 40/55/11 32/56/11
f 41/57/23 42/58/23 50/59/23 49/60/23 48/61/23 47/62/23 46/63/23 45/64/23 44/65/23 43/66/23
f 31/51/24 32/50/24 42/67/24 41/68/24
f 39/52/25 38/38/25 48/69/25 49/70/25
f 36/53/26 35/46/26 45/49/26 46/71/26
f 33/54/27 31/51/27 41/68/27 43/72/27
f 40/55/28 39/52/28 49/70/28 50/73/28
f 37/37/29 36/53/29 46/71/29 47/74/29
f 34/47/30 33/54/30 43/72/30 44/48/30
f 32/56/31 40/55/31 50/73/31 42/75/31
f 38/38/32 37/37/32 47/74/32 48/69/32
